<?xml version="1.0" encoding="UTF-8"?>
<svg xmlns="http://www.w3.org/2000/svg" xmlns:xlink="http://www.w3.org/1999/xlink"
     width="900" height="300" viewBox="0 0 900 300" role="img" aria-labelledby="title">
  <title id="title">LibreRoaster - open-source coffee roast</title>
  <rect width="900" height="300" rx="16" fill="#3A2314"/>
  <defs>
    <g id="bean">
      <ellipse rx="13" ry="18" fill="#B58157" stroke="#5A341F" stroke-width="2"/>
      <path d="M0,-15 C7,-7 -7,7 0,15" fill="none" stroke="#5A341F" stroke-width="3.5" stroke-linecap="round"/>
      <ellipse cx="-5" cy="-8" rx="3.2" ry="6.5" fill="#D9A876" opacity="0.55"/>
    </g>
    <g id="pincol" fill="#D9A876">
      <rect x="75" y="64" width="7" height="7" rx="1"/>
      <rect x="75" y="88" width="7" height="7" rx="1"/>
      <rect x="75" y="112" width="7" height="7" rx="1"/>
      <rect x="75" y="136" width="7" height="7" rx="1"/>
      <rect x="75" y="160" width="7" height="7" rx="1"/>
      <rect x="75" y="184" width="7" height="7" rx="1"/>
      <rect x="75" y="208" width="7" height="7" rx="1"/>
      <rect x="75" y="232" width="7" height="7" rx="1"/>
    </g>
  </defs>
  <rect x="75" y="38" width="92" height="224" rx="8" fill="#1F130B" stroke="#8B5E34" stroke-width="2.5"/>
  <path d="M98,49 h6 v-5 h6 v5 h6 v-5 h6 v5 h6 v-5 h6 v5 h6" fill="none" stroke="#D9A876" stroke-width="2"/>
  <rect x="95" y="54" width="52" height="58" rx="5" fill="#9BA1A8" stroke="#6E7378" stroke-width="2"/>
  <rect x="99" y="58" width="44" height="50" rx="3" fill="#B9BEC4"/>
  <text x="121" y="87" text-anchor="middle" font-family="Arial, Helvetica, sans-serif"
        font-size="13" font-weight="bold" fill="#2B1A10">ESP32</text>
  <circle cx="141" cy="120" r="3.5" fill="#F5A623"/>
  <rect x="105" y="125" width="32" height="26" rx="2" fill="#0B0704" stroke="#5F3A22" stroke-width="1.5"/>
  <g fill="#D9A876">
    <rect x="101" y="129" width="4" height="3"/>
    <rect x="101" y="138" width="4" height="3"/>
    <rect x="101" y="147" width="4" height="3"/>
    <rect x="137" y="129" width="4" height="3"/>
    <rect x="137" y="138" width="4" height="3"/>
    <rect x="137" y="147" width="4" height="3"/>
  </g>
  <rect x="96" y="222" width="16" height="16" rx="3" fill="#7A4A28" stroke="#5F3A22" stroke-width="1.5"/>
  <rect x="130" y="222" width="16" height="16" rx="3" fill="#7A4A28" stroke="#5F3A22" stroke-width="1.5"/>
  <text x="104" y="232" text-anchor="middle" font-family="Arial, Helvetica, sans-serif"
        font-size="6" fill="#EFE3CE">EN</text>
  <text x="138" y="232" text-anchor="middle" font-family="Arial, Helvetica, sans-serif"
        font-size="6" fill="#EFE3CE">BOOT</text>
  <rect x="108" y="254" width="28" height="16" rx="2" fill="#9BA1A8" stroke="#6E7378" stroke-width="1.5"/>
  <rect x="113" y="258" width="18" height="7" rx="1" fill="#120A06"/>
  <rect x="82" y="58" width="10" height="186" rx="2" fill="#120A06"/>
  <rect x="150" y="58" width="10" height="186" rx="2" fill="#120A06"/>
  <use href="#pincol" xlink:href="#pincol"/>
  <use href="#pincol" xlink:href="#pincol" x="83"/>
  <g fill="none" stroke-width="5" stroke-linecap="round">
    <path d="M165,136 C184,135 190,143 201,151" stroke="#F58A2E"/>
    <path d="M165,160 C182,161 188,166 198,170" stroke="#EFE3CE"/>
    <path d="M165,184 C183,184 190,186 200,188" stroke="#D9A876"/>
  </g>
  <use href="#bean" xlink:href="#bean" transform="translate(218,168) rotate(-10) scale(1.75)"/>
  <g fill="#D9A876" stroke="#5A341F" stroke-width="1">
    <circle cx="203" cy="150" r="3.2"/>
    <circle cx="200" cy="169" r="3.2"/>
    <circle cx="202" cy="187" r="3.2"/>
  </g>
  <text x="172" y="212" font-family="Arial, Helvetica, sans-serif"
        font-size="12" font-weight="bold" fill="#F58A2E" letter-spacing="1">GPIO</text>
  <text x="320" y="160" font-family="Arial, Helvetica, sans-serif"
        font-size="80" font-weight="bold" fill="#F58A2E">Libre</text>
  <text x="516" y="160" font-family="Arial, Helvetica, sans-serif"
        font-size="80" font-weight="bold" fill="#FFFFFF">Roaster</text>
  <text x="322" y="200" font-family="Arial, Helvetica, sans-serif"
        font-size="18" letter-spacing="5" fill="#D8C7AE">OPEN-SOURCE COFFEE ROAST</text>
</svg>